<svg width="91" height="67" viewBox="0 0 91 67" fill="none" xmlns="http://www.w3.org/2000/svg">
<circle cx="22.5" cy="32.5" r="22.5" fill="#FCC527"/>
<path d="M60 7.5C60 11.6421 56.6421 15 52.5 15C48.3579 15 45 11.6421 45 7.5C45 3.35786 48.3579 0 52.5 0C56.6421 0 60 3.35786 60 7.5Z" fill="#455A64"/>
<path d="M19.952 21.4C20.176 21.4 20.4 21.448 20.624 21.544C20.88 21.64 21.088 21.8 21.248 22.024L34.496 41.896L33.2 41.848L46.496 22.024C46.848 21.544 47.28 21.336 47.792 21.4C48.176 21.4 48.496 21.544 48.752 21.832C49.04 22.088 49.184 22.424 49.184 22.84V53.56C49.184 53.944 49.04 54.28 48.752 54.568C48.464 54.856 48.112 55 47.696 55C47.248 55 46.88 54.856 46.592 54.568C46.304 54.28 46.16 53.944 46.16 53.56V25.768L47.024 25.864L34.88 44.248C34.784 44.44 34.64 44.6 34.448 44.728C34.256 44.824 34.032 44.856 33.776 44.824C33.552 44.856 33.328 44.824 33.104 44.728C32.912 44.6 32.752 44.44 32.624 44.248L20.432 25.672L21.344 25.048V53.56C21.344 53.944 21.2 54.28 20.912 54.568C20.656 54.856 20.32 55 19.904 55C19.488 55 19.152 54.856 18.896 54.568C18.64 54.28 18.512 53.944 18.512 53.56V22.84C18.512 22.456 18.64 22.12 18.896 21.832C19.184 21.544 19.536 21.4 19.952 21.4ZM80.1511 42.712C80.1511 45.144 79.6071 47.336 78.5191 49.288C77.4631 51.208 76.0231 52.728 74.1991 53.848C72.3751 54.936 70.3111 55.48 68.0071 55.48C65.7351 55.48 63.6711 54.936 61.8151 53.848C59.9911 52.728 58.5351 51.208 57.4471 49.288C56.3911 47.336 55.8631 45.144 55.8631 42.712C55.8631 40.248 56.3911 38.056 57.4471 36.136C58.5351 34.216 59.9911 32.696 61.8151 31.576C63.6711 30.456 65.7351 29.896 68.0071 29.896C70.3111 29.896 72.3751 30.456 74.1991 31.576C76.0231 32.696 77.4631 34.216 78.5191 36.136C79.6071 38.056 80.1511 40.248 80.1511 42.712ZM77.2711 42.712C77.2711 40.76 76.8711 39.032 76.0711 37.528C75.2711 35.992 74.1671 34.792 72.7591 33.928C71.3831 33.032 69.7991 32.584 68.0071 32.584C66.2471 32.584 64.6631 33.032 63.2551 33.928C61.8791 34.792 60.7751 35.992 59.9431 37.528C59.1431 39.032 58.7431 40.76 58.7431 42.712C58.7431 44.664 59.1431 46.392 59.9431 47.896C60.7751 49.4 61.8791 50.6 63.2551 51.496C64.6631 52.36 66.2471 52.792 68.0071 52.792C69.7991 52.792 71.3831 52.36 72.7591 51.496C74.1671 50.6 75.2711 49.4 76.0711 47.896C76.8711 46.392 77.2711 44.664 77.2711 42.712ZM86.426 55C85.882 55 85.466 54.824 85.178 54.472C84.89 54.12 84.746 53.672 84.746 53.128V52.12C84.746 51.544 84.89 51.096 85.178 50.776C85.466 50.456 85.882 50.296 86.426 50.296H86.762C87.306 50.296 87.722 50.456 88.01 50.776C88.298 51.096 88.442 51.544 88.442 52.12V53.128C88.442 53.672 88.298 54.12 88.01 54.472C87.722 54.824 87.306 55 86.762 55H86.426Z" fill="white"/>
</svg>
