<svg width="91" height="67" fill="none" xmlns="http://www.w3.org/2000/svg"><circle cx="22.5" cy="32.5" r="22.5" fill="#FFC727"/><path d="M60 7.5a7.5 7.5 0 1 1-15 0 7.5 7.5 0 0 1 15 0Z" fill="#455A64"/><path d="M19.952 21.4c.224 0 .448.048.672.144.256.096.464.256.624.48l13.248 19.872-1.296-.048 13.296-19.824c.352-.48.784-.688 1.296-.624.384 0 .704.144.96.432.288.256.432.592.432 1.008v30.72c0 .384-.144.72-.432 1.008-.288.288-.64.432-1.056.432-.448 0-.816-.144-1.104-.432a1.382 1.382 0 0 1-.432-1.008V25.768l.864.096L34.88 44.248c-.096.192-.24.352-.432.48-.192.096-.416.128-.672.096-.224.032-.448 0-.672-.096a1.714 1.714 0 0 1-.48-.48L20.432 25.672l.912-.624V53.56c0 .384-.144.72-.432 1.008-.256.288-.592.432-1.008.432-.416 0-.752-.144-1.008-.432a1.47 1.47 0 0 1-.384-1.008V22.84c0-.384.128-.72.384-1.008.288-.288.64-.432 1.056-.432Zm60.2 21.312c0 2.432-.545 4.624-1.633 6.576-1.056 1.92-2.496 3.44-4.32 4.56-1.824 1.088-3.888 1.632-6.192 1.632-2.272 0-4.336-.544-6.192-1.632-1.824-1.12-3.28-2.64-4.368-4.56-1.056-1.952-1.584-4.144-1.584-6.576 0-2.464.528-4.656 1.584-6.576 1.088-1.92 2.544-3.44 4.368-4.56 1.856-1.12 3.92-1.68 6.192-1.68 2.304 0 4.368.56 6.192 1.68 1.824 1.12 3.264 2.64 4.32 4.56 1.088 1.92 1.632 4.112 1.632 6.576Zm-2.88 0c0-1.952-.4-3.68-1.2-5.184-.8-1.536-1.905-2.736-3.313-3.6-1.376-.896-2.96-1.344-4.752-1.344-1.76 0-3.344.448-4.752 1.344-1.376.864-2.48 2.064-3.312 3.6-.8 1.504-1.2 3.232-1.2 5.184s.4 3.68 1.2 5.184c.832 1.504 1.936 2.704 3.312 3.6 1.408.864 2.992 1.296 4.752 1.296 1.792 0 3.376-.432 4.752-1.296a9.446 9.446 0 0 0 3.312-3.6c.8-1.504 1.2-3.232 1.2-5.184ZM86.425 55c-.544 0-.96-.176-1.248-.528-.288-.352-.432-.8-.432-1.344V52.12c0-.576.144-1.024.432-1.344.288-.32.704-.48 1.248-.48h.336c.544 0 .96.16 1.248.48.288.32.432.768.432 1.344v1.008c0 .544-.144.992-.432 1.344-.288.352-.704.528-1.248.528h-.336Z" fill="#fff"/></svg>